# xmcd
#
# Track frame offsets:
#	150
#	10639
#	22709
#	33907
#	45240
#	57276
#	69614
#	77975
#	88646
#	99127
#	109234
#	123583
#	131928
#	139793
#	151713
#	164555
#	176472
#	189118
#	202890
#	215845
#	229451
#	244902
#	258802
#	266930
#	279759
#
# Disc length: 3904 seconds
#
# Revision: 0
# Processed by: cddbd v1.5.2PL0 Copyright (c) Steve Scherf et al.
# Submitted via: audiograbber 1.83.01
#
DISCID=500f3e19
DTITLE=Various Artist - Rocked By The Stones
DYEAR=2014
DGENRE=Blues
TTITLE0=Buddy Holly - Not Fade Away
TTITLE1=Chuck Berry - Around And Around
TTITLE2=Howlin' Wolf - The Red Rooster
TTITLE3=Muddy Waters - I Want To Be Loved
TTITLE4=Jimmy Reed - Honest I Do
TTITLE5=The Coasters - Poison Ivy
TTITLE6=Larry Williams - She Said Yeah
TTITLE7=Bo Diddley - Mona (I Need You Baby)
TTITLE8=Dale Hawkins - Susie-Q
TTITLE9=Freddy Cannon - Tallahassee Lassie
TTITLE10=The Will Bradley Trio - Down The Road Apiece
TTITLE11=Chuck Berry - Come On
TTITLE12=Eddie Cochran - Twenty Flight Rock
TTITLE13=Wilson Pickett - If You Need Me
TTITLE14=Muddy Waters - I Just Want To Make Love To You
TTITLE15=Solomon Burke - Cry To Me
TTITLE16=Chuck Berry - Carol
TTITLE17=Slim Harpo - I'm A King Bee
TTITLE18=Jay McShann - Confessin' The Blues
TTITLE19=Tampa Red - Don't You Lie To Me
TTITLE20=Sarah Vaughan - The Nearness Of You
TTITLE21=Nappy Brown - The Right Time
TTITLE22=Chuck Berry - Let It Rock
TTITLE23=Hank Snow - I'm Moving On
TTITLE24=Muddy Waters - Mannish Boy
EXTD=Disc 2-2
EXTT0=
EXTT1=
EXTT2=
EXTT3=
EXTT4=
EXTT5=
EXTT6=
EXTT7=
EXTT8=
EXTT9=
EXTT10=
EXTT11=
EXTT12=
EXTT13=
EXTT14=
EXTT15=
EXTT16=
EXTT17=
EXTT18=
EXTT19=
EXTT20=
EXTT21=
EXTT22=
EXTT23=
EXTT24=
PLAYORDER=
